<svg xmlns="http://www.w3.org/2000/svg" width="800" height="350" viewBox="0 0 800 350" role="img" aria-labelledby="title description">
  <title id="title">Pixel profile analysis for PP.png</title>
  <desc id="description">Technical image metrics including resolution, luminance, contrast, monochrome coverage, and dominant colors.</desc>
  <defs>
    <linearGradient id="background" x1="0" y1="0" x2="1" y2="1">
      <stop offset="0" stop-color="#0f172a"/>
      <stop offset="0.55" stop-color="#172554"/>
      <stop offset="1" stop-color="#0f172a"/>
    </linearGradient>
    <style>
      .title { fill: #f8fafc; font: 700 25px 'Segoe UI', sans-serif; }
      .subtitle { fill: #93c5fd; font: 500 13px 'Segoe UI', sans-serif; letter-spacing: 1px; }
      .label { fill: #94a3b8; font: 500 12px 'Segoe UI', sans-serif; }
      .value { fill: #f8fafc; font: 700 21px 'Segoe UI', sans-serif; }
      .palette { fill: #cbd5e1; font: 500 10px 'Consolas', monospace; }
      .footer { fill: #64748b; font: 500 11px 'Segoe UI', sans-serif; }
    </style>
  </defs>
  <rect width="800" height="350" rx="22" fill="url(#background)"/>
  <rect x="1" y="1" width="798" height="348" rx="21" fill="none" stroke="#334155"/>
  <text x="38" y="48" class="title">PIXEL PROFILE ANALYSIS</text>
  <text x="38" y="72" class="subtitle">DETERMINISTIC · LOCAL · NO BIOMETRICS</text>
  <g transform="translate(38 103)">
    <rect width="224" height="118" rx="14" fill="#0f172a" stroke="#334155"/>
    <text x="18" y="31" class="label">RESOLUTION</text>
    <text x="18" y="60" class="value">1128 × 1080</text>
    <text x="18" y="87" class="label">1,218,240 pixels · 47:45</text>
    <text x="18" y="105" class="label">806.7 KiB · PNG</text>
  </g>
  <g transform="translate(278 103)">
    <rect width="224" height="118" rx="14" fill="#0f172a" stroke="#334155"/>
    <text x="18" y="31" class="label">LIGHT &amp; CONTRAST</text>
    <text x="18" y="60" class="value">16.9% light</text>
    <text x="18" y="87" class="label">22.4% normalized contrast</text>
  </g>
  <g transform="translate(518 103)">
    <rect width="244" height="118" rx="14" fill="#0f172a" stroke="#334155"/>
    <text x="18" y="31" class="label">COLOR CHARACTER</text>
    <text x="18" y="60" class="value">100% neutral</text>
    <text x="18" y="87" class="label">Pixel-channel analysis only</text>
  </g>
  <text x="38" y="280" class="label">SHA-256</text>
  <text x="38" y="305" class="value">8f1a8c5f6921</text>
  <text x="415" y="248" class="label">DOMINANT PALETTE</text>
  <rect x="415" y="263" width="54" height="34" rx="8" fill="#202020" stroke="#64748b"/><text x="442" y="315" text-anchor="middle" class="palette">#202020</text><rect x="481" y="263" width="54" height="34" rx="8" fill="#404040" stroke="#64748b"/><text x="508" y="315" text-anchor="middle" class="palette">#404040</text><rect x="547" y="263" width="54" height="34" rx="8" fill="#000000" stroke="#64748b"/><text x="574" y="315" text-anchor="middle" class="palette">#000000</text><rect x="613" y="263" width="54" height="34" rx="8" fill="#606060" stroke="#64748b"/><text x="640" y="315" text-anchor="middle" class="palette">#606060</text><rect x="679" y="263" width="54" height="34" rx="8" fill="#808080" stroke="#64748b"/><text x="706" y="315" text-anchor="middle" class="palette">#808080</text>
  <text x="38" y="333" class="footer">Generated by scripts/analyze-profile-image.js · No facial recognition or biometric inference</text>
</svg>
